<svg width="48" height="48" viewBox="0 0 48 48" fill="none" xmlns="http://www.w3.org/2000/svg">
<path d="M48 24C48 19.2533 46.5924 14.6131 43.9553 10.6663C41.3181 6.71954 37.5698 3.6434 33.1844 1.8269C28.799 0.0103984 23.9734 -0.464881 19.3178 0.461164C14.6623 1.38721 10.3859 3.67299 7.02945 7.02945C3.67299 10.3859 1.38721 14.6623 0.461164 19.3178C-0.464881 23.9734 0.0103984 28.799 1.8269 33.1844C3.6434 37.5698 6.71954 41.3181 10.6663 43.9553C14.6131 46.5924 19.2533 48 24 48C30.3633 47.9938 36.4642 45.4632 40.9637 40.9637C45.4632 36.4642 47.9938 30.3633 48 24ZM25.4118 45.1294V29.1765H31.5294C31.9038 29.1765 32.2629 29.0277 32.5277 28.763C32.7924 28.4982 32.9412 28.1391 32.9412 27.7647C32.9412 27.3903 32.7924 27.0312 32.5277 26.7664C32.2629 26.5017 31.9038 26.3529 31.5294 26.3529H25.4118V20.2353C25.418 19.1139 25.8662 18.0403 26.6591 17.2473C27.452 16.4544 28.5257 16.0062 29.6471 16H33.4118C33.7862 16 34.1453 15.8513 34.41 15.5865C34.6748 15.3218 34.8235 14.9627 34.8235 14.5882C34.8235 14.2138 34.6748 13.8547 34.41 13.59C34.1453 13.3252 33.7862 13.1765 33.4118 13.1765H29.6471C27.7769 13.1827 25.985 13.9284 24.6626 15.2508C23.3401 16.5733 22.5944 18.3651 22.5882 20.2353V26.3529H16.4706C16.0962 26.3529 15.7371 26.5017 15.4723 26.7664C15.2076 27.0312 15.0588 27.3903 15.0588 27.7647C15.0588 28.1391 15.2076 28.4982 15.4723 28.763C15.7371 29.0277 16.0962 29.1765 16.4706 29.1765H22.5882V45.1294C17.1064 44.7631 11.9815 42.2807 8.29578 38.2064C4.61007 34.1321 2.65208 28.7848 2.83532 23.2938C3.01856 17.8028 5.32867 12.5979 9.27781 8.77838C13.2269 4.95883 18.506 2.82359 24 2.82359C29.4941 2.82359 34.7731 4.95883 38.7222 8.77838C42.6713 12.5979 44.9815 17.8028 45.1647 23.2938C45.3479 28.7848 43.3899 34.1321 39.7042 38.2064C36.0185 42.2807 30.8936 44.7631 25.4118 45.1294Z" fill="white"/>
</svg>
