<svg width="48" height="48" viewBox="0 0 48 48" fill="none" xmlns="http://www.w3.org/2000/svg">
<path d="M24 12.7347C21.7719 12.7347 19.5939 13.3954 17.7413 14.6332C15.8888 15.8711 14.4449 17.6305 13.5922 19.689C12.7396 21.7474 12.5165 24.0125 12.9512 26.1978C13.3858 28.383 14.4587 30.3903 16.0342 31.9658C17.6097 33.5413 19.617 34.6142 21.8022 35.0488C23.9875 35.4835 26.2526 35.2604 28.311 34.4078C30.3695 33.5551 32.1289 32.1112 33.3668 30.2587C34.6046 28.4061 35.2653 26.2281 35.2653 24C35.2653 21.0123 34.0784 18.1469 31.9658 16.0342C29.8531 13.9216 26.9877 12.7347 24 12.7347V12.7347ZM24 32.3265C22.3532 32.3265 20.7433 31.8382 19.374 30.9233C18.0047 30.0083 16.9375 28.7079 16.3073 27.1864C15.6771 25.6649 15.5122 23.9908 15.8335 22.3756C16.1547 20.7604 16.9478 19.2767 18.1123 18.1123C19.2767 16.9478 20.7604 16.1547 22.3756 15.8335C23.9908 15.5122 25.6649 15.6771 27.1864 16.3073C28.7079 16.9375 30.0083 18.0047 30.9233 19.374C31.8382 20.7433 32.3265 22.3532 32.3265 24C32.3201 26.2063 31.4407 28.3205 29.8806 29.8806C28.3205 31.4407 26.2063 32.3201 24 32.3265ZM34.7755 0H13.2245C9.71714 0 6.35344 1.39329 3.87336 3.87336C1.39329 6.35344 0 9.71714 0 13.2245V34.7755C0 38.2829 1.39329 41.6466 3.87336 44.1266C6.35344 46.6067 9.71714 48 13.2245 48H34.7755C38.2829 48 41.6466 46.6067 44.1266 44.1266C46.6067 41.6466 48 38.2829 48 34.7755V13.2245C48 9.71714 46.6067 6.35344 44.1266 3.87336C41.6466 1.39329 38.2829 0 34.7755 0V0ZM45.0612 34.7755C45.0612 37.5035 43.9776 40.1197 42.0486 42.0486C40.1197 43.9776 37.5035 45.0612 34.7755 45.0612H13.2245C10.4965 45.0612 7.88034 43.9776 5.95139 42.0486C4.02245 40.1197 2.93878 37.5035 2.93878 34.7755V13.2245C2.93878 10.4965 4.02245 7.88034 5.95139 5.95139C7.88034 4.02245 10.4965 2.93878 13.2245 2.93878H34.7755C37.5035 2.93878 40.1197 4.02245 42.0486 5.95139C43.9776 7.88034 45.0612 10.4965 45.0612 13.2245V34.7755ZM39.1837 11.2653C39.1837 11.7497 39.04 12.2232 38.7709 12.6259C38.5018 13.0286 38.1194 13.3425 37.6719 13.5279C37.2244 13.7132 36.732 13.7617 36.2569 13.6672C35.7819 13.5727 35.3455 13.3395 35.003 12.997C34.6605 12.6545 34.4273 12.2181 34.3328 11.7431C34.2383 11.268 34.2868 10.7756 34.4721 10.3281C34.6575 9.88063 34.9714 9.49815 35.3741 9.22905C35.7768 8.95996 36.2503 8.81633 36.7347 8.81633C37.3842 8.81633 38.0071 9.07434 38.4664 9.53362C38.9257 9.99289 39.1837 10.6158 39.1837 11.2653Z" fill="white"/>
</svg>
