<svg width="48" height="48" viewBox="0 0 48 48" fill="none" xmlns="http://www.w3.org/2000/svg">
<path d="M47.9282 6.91315C47.8602 6.72079 47.7436 6.556 47.5934 6.43984C47.4432 6.32367 47.2661 6.26139 47.0847 6.26097H39.6075C38.7777 4.39969 37.5196 2.83293 35.969 1.72962C34.4183 0.626317 32.6339 0.0283226 30.8081 0.000119797C28.1315 -0.0138013 25.5591 1.18607 23.6537 3.33718C21.7483 5.4883 20.665 8.41552 20.6409 11.4784V14.4001C10.5877 11.9479 2.22141 2.47837 2.13023 2.40011C2.01581 2.26079 1.8694 2.16118 1.70778 2.1127C1.54617 2.06422 1.37588 2.06884 1.21645 2.12602C1.05702 2.1832 0.914898 2.29064 0.806375 2.43601C0.697853 2.58138 0.627322 2.7588 0.602869 2.94794C-1.35762 15.1566 1.83388 23.3218 4.8658 28.0174C6.56423 30.6857 8.68249 32.9681 11.112 34.7479C7.53298 40.0696 1.24117 42.8087 1.17278 42.8609C1.04469 42.9157 0.929004 43.0028 0.834299 43.1156C0.739593 43.2285 0.668289 43.3644 0.625666 43.5131C0.582438 43.6607 0.57023 43.818 0.590033 43.9721C0.609836 44.1262 0.661093 44.2728 0.739648 44.4C0.785241 44.5044 1.37795 45.4435 2.90531 46.3304C4.843 47.4261 7.44179 48 10.6105 48C26.3172 48 39.4479 34.0435 40.6106 16.174L47.723 8.03488C47.8545 7.89523 47.9449 7.71231 47.9816 7.51138C48.0184 7.31045 47.9997 7.10142 47.9282 6.91315V6.91315ZM39.0832 14.974C38.9254 15.1564 38.8286 15.3965 38.8096 15.6523C37.875 32.6348 25.4737 45.913 10.6105 45.913C6.55273 45.913 4.31868 44.8957 3.20166 44.1131C5.57249 42.8609 10.3825 39.8609 13.1865 35.0087C13.2634 34.8907 13.3157 34.7542 13.3394 34.6095C13.3631 34.4648 13.3576 34.3158 13.3233 34.1739C13.2883 34.0294 13.2277 33.8946 13.1454 33.778C13.063 33.6613 12.9607 33.5652 12.8445 33.4957C12.7989 33.4696 9.35669 31.4609 6.32477 26.7653C2.54056 20.8696 1.12719 13.6436 2.13023 5.2175C5.04817 8.16532 12.571 15.0001 21.3932 16.6696C21.5244 16.6967 21.659 16.6921 21.7886 16.6562C21.9181 16.6202 22.0397 16.5537 22.1455 16.4609C22.2461 16.3601 22.3267 16.2358 22.3818 16.0963C22.4368 15.9567 22.4651 15.8053 22.4646 15.6523V11.4784C22.4887 8.97356 23.3766 6.5811 24.9351 4.82209C26.4936 3.06309 28.5963 2.08004 30.7853 2.08707C32.3622 2.11516 33.8989 2.66119 35.2124 3.66016C36.5259 4.65913 37.5609 6.06896 38.1941 7.72184C38.2631 7.91141 38.3806 8.07267 38.5311 8.18442C38.6817 8.29616 38.8582 8.35316 39.0376 8.34792H44.8735L39.0832 14.974Z" fill="white"/>
</svg>
